# xmcd
#
# Track frame offsets: 
#        150
#        19111
#        34039
#        42972
#        58629
#        76744
#        91909
#        107571
#        125241
#        140281
#        150879
#        166168
#
# Disc length: 2370 seconds
#
# Revision: 0
# Processed by: cddbd v1.5.2PL0 Copyright (c) Steve Scherf et al.
# Submitted via: ExactAudioCopy v0.99pb4
#
DISCID=8709400c
DTITLE=Ferrell Stowe - Trnava
DYEAR=1900
DGENRE=Bluegrass
TTITLE0=Keokuk
TTITLE1=Trnava
TTITLE2=Don't This Road Look Rough and Rocky
TTITLE3=#4 Spider Blues
TTITLE4=Death From Nashville Causes
TTITLE5=Return To Trnava
TTITLE6=The Pathway of Teardrops
TTITLE7=Life's Highway
TTITLE8=Barren Plains
TTITLE9=Banks of the Ohio
TTITLE10=Barney Got A Badge
TTITLE11=The Lonely Drive
EXTD=
EXTT0=
EXTT1=
EXTT2=
EXTT3=
EXTT4=
EXTT5=
EXTT6=
EXTT7=
EXTT8=
EXTT9=
EXTT10=
EXTT11=
PLAYORDER=
